<svg xmlns="http://www.w3.org/2000/svg" xmlns:xlink="http://www.w3.org/1999/xlink" width="1933.223" height="422.095" viewBox="0 0 1933.223 422.095"><defs><clipPath id="a"><rect width="962.558" height="412.095" fill="#40403f" stroke="#000" stroke-width="1"/></clipPath><clipPath id="b"><rect width="970.665" height="412.095" fill="#40403f" stroke="#000" stroke-width="1"/></clipPath></defs><g transform="translate(0 -6175.873)"><g transform="translate(0 6175.873)" clip-path="url(#a)"><g transform="translate(-4.813 102.873)" opacity="0.078"><path d="M1531.4,352.234V268.789c0-2.1,1.253-3.817,2.8-3.817h4.669v-55.4c0-2.875,1.711-5.213,3.816-5.213h2.375v-29.1c0-2.512,1.318-4.663,3.133-5.114l.873-.218V149.892a5.352,5.352,0,0,1,2.568-4.9l.71-.339V130.494c0-2.348,1.171-4.411,2.849-5.015l.791-.284V106.452h.531v18.743l.791.284c1.679.6,2.85,2.667,2.85,5.015v14.163l.711.339a5.354,5.354,0,0,1,2.568,4.9v20.033l.872.218c1.815.451,3.133,2.6,3.133,5.114v29.1h2.375c2.1,0,3.816,2.338,3.816,5.213v55.4h4.67c1.542,0,2.8,1.713,2.8,3.817v83.446Zm37.251-.725h11.91V327.845h-11.91Zm-12.14,0h11.609V327.845h-11.609Zm-12.139,0h11.608V327.845h-11.608Zm-12.44,0h11.909V327.845h-11.909Zm36.72-24.389h11.91V268.789c0-1.7-1.016-3.092-2.265-3.092h-9.645v14h3.463v.725h-3.463V291.3h3.463v.725h-3.463V302.9h3.463v.725h-3.463V314.5h3.463v.725h-3.463Zm-12.14,0h11.609V265.7h-11.609v15.156h2.1v.725h-2.1v10.878h2.1v.725h-2.1v10.878h2.1v.725h-2.1v10.878h2.1v.725h-2.1Zm-12.139,0h11.608V316.387h-2.1v-.725h2.1V304.784h-2.1v-.725h2.1V293.181h-2.1v-.725h2.1V281.578h-2.1v-.725h2.1V265.7h-11.608ZM1534.2,265.7c-1.249,0-2.265,1.388-2.265,3.092V327.12h11.909V315.227h-3.463V314.5h3.463V303.624h-3.463V302.9h3.463V292.021h-3.463V291.3h3.463V280.418h-3.463v-.725h3.463v-14Zm30.448-.725h8.451V248.095h-8.451Zm-8.134,0h7.6V248.095h-7.6Zm-8.133,0h7.6V248.095h-7.6Zm-8.981,0h8.45V248.095h-8.45Zm25.248-17.6h8.451v-37.8c0-2.474-1.474-4.487-3.285-4.487h-5.166v9.63h2.463v.725h-2.463v10.878h2.463v.725h-2.463v10.878h2.463v.725h-2.463Zm-8.134,0h7.6V205.085h-7.6v9.63h2.1v.725h-2.1v10.878h2.1v.725h-2.1v10.878h2.1v.725h-2.1Zm-8.133,0h7.6v-8.723h-2.1v-.725h2.1V227.044h-2.1v-.725h2.1V215.441h-2.1v-.725h2.1v-9.63h-7.6Zm-5.7-42.284c-1.811,0-3.285,2.013-3.285,4.487v37.8h8.45v-8.723h-2.463v-.725h2.463V227.044h-2.463v-.725h2.463V215.441h-2.463v-.725h2.463v-9.63Zm13.83-.725h10.393v-9.884h-10.393Zm-10.924,0h10.393v-9.884h-10.393Zm10.924-10.609h10.393v-18.5c0-2.473-1.473-4.486-3.285-4.486h-7.109Zm-7.638-22.981c-1.812,0-3.286,2.013-3.286,4.486v18.5h10.393V170.77Zm.72-.725H1562.9V158.211h-13.307Zm3.284-24.639c-1.811,0-3.284,2.012-3.284,4.486v7.594H1562.9v-7.594c0-2.474-1.474-4.486-3.286-4.486Zm3.278-19.4c-1.811,0-3.284,2.013-3.284,4.486V144.68h6.751V130.494c0-2.473-1.474-4.486-3.285-4.486Z" transform="translate(-610.112 -42.41)" fill="#40403f" stroke="#000" stroke-width="1"/><path d="M1415.544,389.948v-138.4h9.989V237.18h9.516V201.114h.531V226.8h10.757V237.18h5.5V218.24h.531v18.94h10.84v14.369h9.989v138.4Zm33.851-.725h23.275V252.274h-56.594V389.223h23.274v-15.88h10.046Zm-9.515,0h8.984V374.068h-8.984Zm-13.816-137.673h36.617V237.906h-36.617Zm9.516-14.369H1445.8v-9.652h-10.226Zm27.1,129.783v-3.891h-36.617v3.891h-.531v-4.617h37.679v4.617Zm0-13.607v-3.89h-36.617v3.89h-.531v-4.615h37.679v4.615Zm0-13.607v-3.89h-36.617v3.89h-.531v-4.615h37.679v4.615Zm0-13.607v-3.89h-36.617v3.89h-.531v-4.615h37.679v4.615Zm0-13.607v-3.89h-36.617v3.89h-.531v-4.615h37.679v4.615Zm0-13.607v-3.891h-36.617v3.891h-.531V294.31h37.679v4.617Zm0-13.607v-3.891h-36.617v3.891h-.531V280.7h37.679v4.617Zm0-13.607v-3.891h-36.617v3.891h-.531V267.1h37.679v4.617Z" transform="translate(-563.955 -80.124)" fill="#40403f" stroke="#000" stroke-width="1"/><path d="M1305.15,387.041V196.718c0-1.626.728-2.9,1.655-2.9h50.178c.927,0,1.653,1.273,1.653,2.9V387.041Zm44.142-.725h8.813V371.958h-8.813Zm-12.6,0h12.071V371.958h-12.071Zm-9.063,0h8.532V371.958h-8.532Zm-12.6,0H1327.1V371.958h-12.071Zm-9.344,0h8.813V371.958h-8.813Zm43.611-15.084h8.813V356.427h-8.813Zm-12.6,0h12.071V356.427h-12.071Zm-9.063,0h8.532V356.427h-8.532Zm-12.6,0H1327.1V356.427h-12.071Zm-9.344,0h8.813V356.427h-8.813Zm43.611-15.531h8.813V340.9h-8.813Zm-12.6,0h12.071V340.9h-12.071Zm-9.063,0h8.532V340.9h-8.532Zm-12.6,0H1327.1V340.9h-12.071Zm-9.344,0h8.813V340.9h-8.813Zm43.611-15.531h8.813v-14.8h-8.813Zm-12.6,0h12.071v-14.8h-12.071Zm-9.063,0h8.532v-14.8h-8.532Zm-12.6,0H1327.1v-14.8h-12.071Zm-9.344,0h8.813v-14.8h-8.813Zm43.611-15.529h8.813V309.837h-8.813Zm-12.6,0h12.071V309.837h-12.071Zm-9.063,0h8.532V309.837h-8.532Zm-12.6,0H1327.1V309.837h-12.071Zm-9.344,0h8.813V309.837h-8.813Zm43.611-15.531h8.813V294.306h-8.813Zm-12.6,0h12.071V294.306h-12.071Zm-9.063,0h8.532V294.306h-8.532Zm-12.6,0H1327.1V294.306h-12.071Zm-9.344,0h8.813V294.306h-8.813Zm43.611-15.531h8.813V278.776h-8.813Zm-12.6,0h12.071V278.776h-12.071Zm-9.063,0h8.532V278.776h-8.532Zm-12.6,0H1327.1V278.776h-12.071Zm-9.344,0h8.813V278.776h-8.813Zm43.611-15.531h8.813V263.245h-8.813Zm-12.6,0h12.071V263.245h-12.071Zm-9.063,0h8.532V263.245h-8.532Zm-12.6,0H1327.1V263.245h-12.071Zm-9.344,0h8.813V263.245h-8.813Zm43.611-15.531h8.813v-14.8h-8.813Zm-12.6,0h12.071v-14.8h-12.071Zm-9.063,0h8.532v-14.8h-8.532Zm-12.6,0H1327.1v-14.8h-12.071Zm-9.344,0h8.813v-14.8h-8.813Zm43.611-15.529h8.813V232.185h-8.813Zm-12.6,0h12.071V232.185h-12.071Zm-9.063,0h8.532V232.185h-8.532Zm-12.6,0H1327.1V232.185h-12.071Zm-9.344,0h8.813V232.185h-8.813Zm43.611-15.531h8.813V216.655h-8.813Zm-12.6,0h12.071V216.655h-12.071Zm-9.063,0h8.532V216.655h-8.532Zm-12.6,0H1327.1V216.655h-12.071Zm-9.344,0h8.813V216.655h-8.813Zm43.611-15.531h8.813V196.718a3.315,3.315,0,0,0-.39-1.64l-.318-.534h-8.1Zm-12.6,0h12.071V194.544h-12.071Zm-9.063,0h8.532V194.544h-8.532Zm-12.6,0H1327.1V194.544h-12.071Zm-8.962-20.842a3.349,3.349,0,0,0-.382,1.63V215.93h8.813V194.544h-8.111Z" transform="translate(-519.974 -77.218)" fill="#40403f" stroke="#000" stroke-width="1"/><path d="M1171.187,349.084l9.027-45.768c1.8-4.8,5.35-7.775,9.3-7.775h5.977V193.724c0-6.3,3.753-11.425,8.367-11.425h4.119V98.544h.531v19.467l.96.126c6.571.86,11.526,8.309,11.526,17.329v102.1h8.252c4.614,0,8.367,5.126,8.367,11.426V349.084Zm19.358-.725h46.542v-16.7h-24.657v-.725h24.657V315.467h-42.943v-.725h42.943V296.266h-47.569c-3.726,0-7.1,2.805-8.81,7.324l-.052.138-8.777,44.631h18.135V337.975h.531Zm36.822-52.818h9.72V248.992c0-5.9-3.516-10.7-7.836-10.7h-33.225v21.055h26.807v.725h-26.807v15.3h18.128v.725h-18.128V295.54h30.81V283.952h.531Zm-22.659-57.974h15.759v-19.61h-8.038v-.725h8.038v-14.4h-14.823v-.725h14.823V183.025h-16.606c-4.32,0-7.836,4.8-7.836,10.7v43.842h8.152v-6.959h.531Zm3.8-55.266h11.955V135.466c0-8.45-4.63-15.574-10.768-16.573l-1.187-.193v25.17h4.916v.725h-4.916v15.152h3.084v.725h-3.084Z" transform="translate(-466.602 -39.26)" fill="#40403f" stroke="#000" stroke-width="1"/><path d="M1060.2,384.951V242.667c0-1.246.742-2.258,1.654-2.258h12.6l-7.4-12.145a1.39,1.39,0,0,1-.108-1.165.809.809,0,0,1,.725-.631h14.442l.149-1.211a11.165,11.165,0,0,1,3.939-7.565l.551-.412V188.573h.531v28.311l1.251-.309a5.4,5.4,0,0,1,2.764,0l1.251.309V203.89h.531v13.39l.552.412a11.164,11.164,0,0,1,3.939,7.565l.148,1.211h14.442a.809.809,0,0,1,.726.629,1.393,1.393,0,0,1-.109,1.166l-7.4,12.145h12.6c.911,0,1.652,1.012,1.652,2.258V384.951Zm50.089-.725h8.812V373.682h-8.812Zm-12.6,0h12.071V373.682H1097.69Zm-15.011,0h14.48V373.682h-14.48Zm-12.6,0h12.071V373.682h-12.071Zm-9.343,0h8.812V373.682h-8.812Zm49.558-11.269h8.812V362.079h-8.812Zm-12.6,0h12.071V362.079H1097.69Zm-15.011,0h14.48V362.079h-14.48Zm-12.6,0h12.071V362.079h-12.071Zm-9.343,0h8.812V362.079h-8.812Zm49.558-11.6h8.812V350.476h-8.812Zm-12.6,0h12.071V350.476H1097.69Zm-15.011,0h14.48V350.476h-14.48Zm-12.6,0h12.071V350.476h-12.071Zm-9.343,0h8.812V350.476h-8.812Zm49.558-11.6h8.812V338.873h-8.812Zm-12.6,0h12.071V338.873H1097.69Zm-15.011,0h14.48V338.873h-14.48Zm-12.6,0h12.071V338.873h-12.071Zm-9.343,0h8.812V338.873h-8.812Zm49.558-11.6h8.812V327.27h-8.812Zm-12.6,0h12.071V327.27H1097.69Zm-15.011,0h14.48V327.27h-14.48Zm-12.6,0h12.071V327.27h-12.071Zm-9.343,0h8.812V327.27h-8.812Zm49.558-11.6h8.812V315.667h-8.812Zm-12.6,0h12.071V315.667H1097.69Zm-15.011,0h14.48V315.667h-14.48Zm-12.6,0h12.071V315.667h-12.071Zm-9.343,0h8.812V315.667h-8.812Zm49.558-11.6h8.812V304.064h-8.812Zm-12.6,0h12.071V304.064H1097.69Zm-15.011,0h14.48V304.064h-14.48Zm-12.6,0h12.071V304.064h-12.071Zm-9.343,0h8.812V304.064h-8.812Zm49.558-11.6h8.812V292.461h-8.812Zm-12.6,0h12.071V292.461H1097.69Zm-15.011,0h14.48V292.461h-14.48Zm-12.6,0h12.071V292.461h-12.071Zm-9.343,0h8.812V292.461h-8.812Zm49.558-11.6h8.812V280.858h-8.812Zm-12.6,0h12.071V280.858H1097.69Zm-15.011,0h14.48V280.858h-14.48Zm-12.6,0h12.071V280.858h-12.071Zm-9.343,0h8.812V280.858h-8.812Zm49.558-11.6h8.812V269.255h-8.812Zm-12.6,0h12.071V269.255H1097.69Zm-15.011,0h14.48V269.255h-14.48Zm-12.6,0h12.071V269.255h-12.071Zm-9.343,0h8.812V269.255h-8.812Zm49.558-11.6h8.812V257.652h-8.812Zm-12.6,0h12.071V257.652H1097.69Zm-15.011,0h14.48V257.652h-14.48Zm-12.6,0h12.071V257.652h-12.071Zm-9.343,0h8.812V257.652h-8.812Zm49.558-11.6h8.812V241.218l-8.812-.013Zm-12.6,0h12.071V241.2l-12.071-.017Zm-15.011,0h14.48V241.185l-14.48-.02Zm-12.6,0h12.071V241.163l-12.071-.017Zm-9.343-14.26v14.26h8.812V241.144l-8.751-.01Zm14.416-2.258h29.539l3.463-5.681h-6.6V234h7.04l4.15-6.809H1067.1l4.15,6.809h6.8v.725h-6.361Zm14.769-23.289c-3.347,0-6.236,3.107-7.028,7.554l-.32,1.794h14.7l-.32-1.794C1096.155,220.227,1093.266,217.12,1089.919,217.12Z" transform="translate(-422.386 -75.128)" fill="#40403f" stroke="#000" stroke-width="1"/><path d="M920.713,331.619V165.531l11.235-47.268h6.53l1.784-8.965V93.055h11.83V54.707h.531V79.939h6.482V93.055h12.365v16.238l1.95,8.971h7.214L991.87,165.53V331.619Zm60.843-.725h9.783V165.949h-9.783Zm-50,0h49.467V156.119h-9.172V313.041H940.73l.042-156.923h-9.214Zm-10.314,0h9.784l.043-164.945h-9.826Zm40.41-18.578h9.668V294.194h-9.668Zm-10.195,0h9.664V294.194h-9.664Zm-10.2,0h9.668V294.194H941.26Zm20.394-18.848h9.668V267.224h-9.668Zm-10.195,0h9.664V267.224h-9.664Zm-10.2,0h9.669V267.224H941.26Zm20.394-26.97h9.668V248.377h-9.668Zm-10.195,0h9.664V248.377h-9.664Zm-10.2,0h9.669V248.377h-9.67Zm20.394-18.848h9.668V221.407h-9.668Zm-10.195,0h9.664V221.407h-9.664Zm-10.2,0h9.67V221.407H941.26Zm20.394-26.97h9.668V202.559h-9.668Zm-10.195,0h9.664V202.559h-9.664Zm-10.2,0h9.671V202.559H941.26Zm20.394-18.848h9.668V175.59h-9.668Zm-10.195,0h9.664V175.59h-9.664Zm-10.2,0h9.672V175.59H941.26Zm20.394-26.97h9.668V156.742h-9.668Zm-10.195,0h9.664V156.742h-9.664Zm-10.2,0h9.672V156.742H941.26Zm40.3-9.641h9.683l-10.991-46.235h-6.67l7.978,36.715Zm-60.212,0h9.727l0-9.749,7.26-36.486h-6Zm40.283-9.207h9.6l-5.787-26.244h-5.467Zm-10.144,0H961.1l-1.652-26.244h-6.311Zm-10.145,0h9.613l1.653-26.244h-6.3Zm30.31-.624h9.287l-9.928-45.687H940.732l-9.093,45.687h9.269l4.979-26.346h19.952Zm-29.675-46.412H970.94V93.944Zm-1.18-.162,14.526-7.542-14.526-7.339Zm15.282-7.934,13.682-7.105H942.01Zm-3.452-7.831h5.951V80.665h-5.951ZM948.81,119.33V118.6h14.114v.725Z" transform="translate(-366.813 -21.795)" fill="#40403f" stroke="#000" stroke-width="1"/><path d="M808.13,347.113l6.078-41.444-3.014-22.581,3.161,1.536V264.668l-3.161-23.689,3.161,1.536V222.559l-3.161-23.689,3.161,1.536V180.451l-3.161-23.689,11.018,5.349,6-40.149h4.8V93.6h.531v28.365h4.8l6,40.149,11.018-5.349-3.16,23.689v19.956l3.16-1.536-3.16,23.689v19.956l3.16-1.536-3.16,23.689v19.956l3.16-1.536-3.014,22.581,6.079,41.444Zm25.412-31.622v30.9h24.234L851.737,305.2Zm-24.763,30.9h24.232v-30.9L814.817,305.2Zm24.763-41.35v9.67l18.452-10.441,2.679-20.076-21.132,10.258v9.822l8.814-4.281.178.683Zm-18.983-.772,18.452,10.441v-9.67l-8.994-4.366.178-.683,8.815,4.281v-9.822L811.881,284.19Zm18.983-30.884v20.3l18.126-8.8V263.128Zm-18.656,11.5,18.125,8.8v-20.3l-18.125-10.254Zm18.656-22.774V272.6l18.452-10.44,2.679-20.075L833.542,252.34v9l8.814-4.28.178.685Zm-18.983.051,18.452,10.44V262.107l-8.994-4.364.178-.685,8.815,4.28v-9l-21.131-10.257Zm18.983-30.884v20.3l18.126-8.8V221.019Zm-18.656,11.5,18.125,8.8v-20.3l-18.125-10.254Zm18.656-22.434v10.151l18.452-10.438,2.679-20.076-21.132,10.257v9.336l8.814-4.279.178.682Zm-18.983-.287,18.452,10.438V220.337l-8.994-4.367.178-.683,8.815,4.28v-9.336l-21.131-10.257Zm18.983-30.886v20.3l18.126-8.8V178.91Zm-18.656,11.5,18.125,8.8v-20.3L814.886,178.91Zm18.656-22.1v9.813l18.452-10.437,2.679-20.076-21.132,10.258V177.8l8.814-4.279.178.683Zm-18.983-.624,18.452,10.437v-9.813l-8.994-4.366.178-.683,8.815,4.279v-9.671l-21.131-10.258Zm8.157-15.586,10.561,5.127,10.561-5.127-5.929-39.669h-9.263Z" transform="translate(-321.96 -37.289)" fill="#40403f" stroke="#000" stroke-width="1"/><path d="M697.732,359.674V185.94c0-7.123,3.515-12.917,7.836-12.917h2.95v-5.1c0-5.572,3.319-10.106,7.4-10.106h1.515l.1-1.305c.336-4.566,2.424-7.514,5.731-8.092l.928-.161V125.126h.531v23.138l.927.161c3.308.577,5.4,3.526,5.731,8.092l.1,1.305h1.515c4.08,0,7.4,4.534,7.4,10.106v5.1h2.949c4.321,0,7.837,5.794,7.837,12.917V359.674Zm45.048-.725h7.863V341.661H742.78Zm-9.031,0h8.5V341.661h-8.5Zm-18.063,0h17.532V341.661H715.687Zm-9.031,0h8.5V341.661h-8.5Zm-8.393,0h7.862V341.661h-7.862Zm44.517-18.014h7.863V318.547H742.78Zm-9.031,0h8.5V318.547h-8.5Zm-18.063,0h17.532V318.547H715.687Zm-9.031,0h8.5V318.547h-8.5Zm-8.393,0h7.862V318.547h-7.862Zm44.517-23.113h7.863V300.534H742.78Zm-9.031,0h8.5V300.534h-8.5Zm-18.063,0h17.532V300.534H715.687Zm-9.031,0h8.5V300.534h-8.5Zm-8.393,0h7.862V300.534h-7.862Zm44.517-18.014h7.863V277.422H742.78Zm-9.031,0h8.5V277.422h-8.5Zm-18.063,0h17.532V277.422H715.687Zm-9.031,0h8.5V277.422h-8.5Zm-8.393,0h7.862V277.422h-7.862ZM739.356,276.7h11.286V256H739.356Zm-29.277,0h28.746V256H710.08Zm-11.816,0h11.285V256H698.263Zm44.517-21.422h7.863V232.889H742.78Zm-9.031,0h8.5V232.889h-8.5Zm-18.063,0h17.532V232.889H715.687Zm-9.031,0h8.5V232.889h-8.5Zm-8.393,0h7.862V232.889h-7.862Zm44.517-23.112h7.863V214.875H742.78Zm-9.031,0h8.5V214.875h-8.5Zm-18.063,0h17.532V214.875H715.687Zm-9.031,0h8.5V214.875h-8.5Zm-8.393,0h7.862V214.875h-7.862ZM742.78,214.15h7.863V191.762H742.78Zm-9.031,0h8.5V191.762h-8.5Zm-18.063,0h17.532V191.762H715.687Zm-9.031,0h8.5V191.762h-8.5Zm-8.393,0h7.862V191.762h-7.862Zm44.517-23.113h7.863v-5.1c0-6.39-2.878-11.609-6.692-12.14l-1.17-.162Zm-9.031,0h8.5V173.748h-8.5Zm-18.063,0h17.532V173.748H715.687Zm-9.031,0h8.5V173.748h-8.5Zm-1.7-17.236c-3.815.531-6.691,5.749-6.691,12.14v5.1h7.862v-17.4Zm10.963-15.254c-3.787,0-6.868,4.209-6.868,9.381v5.1h30.807v-5.1c0-5.172-3.082-9.381-6.869-9.381Zm8.536-9.51c-3.511,0-5.885,2.666-6.352,7.13l-.173,1.655h13.051l-.173-1.655C730.338,151.7,727.963,149.037,724.453,149.037Z" transform="translate(-277.978 -49.85)" fill="#40403f" stroke="#000" stroke-width="1"/><path d="M604.185,343.081l6.3-31.322-7.645-17.393,6.609-3.036,1.167-15.165-6.59-17.636,5.391-2.609,1.2-15.648-5.412-17.58,4.17-2.132,1.245-16.167-4.234-15.819,6.987-4.4,10.274-57.807-.426-.577a6.567,6.567,0,0,1-1.194-3.894c0-2.45,1.221-4.615,2.969-5.268l.783-.292V83.476h.531v32.86l.783.292c1.749.653,2.97,2.818,2.97,5.268a6.574,6.574,0,0,1-1.194,3.894l-.426.577,10.274,57.806,6.987,4.4-4.234,15.818,1.245,16.169,4.169,2.132-5.411,17.579,1.2,15.649,5.39,2.609-6.59,17.635,1.168,15.167,6.608,3.036-7.646,17.391,6.3,31.324Zm7.025-32.2-6.327,31.475H647.21l-6.329-31.475-14.57-10.137v38.67h-.531v-38.67Zm-7.578-16.116,6.925,15.755,15.223-10.586V284.593Zm22.679,5.169,15.224,10.586,6.925-15.755-22.149-10.171Zm0-16.1,15.783,7.248-1.235-16.045-14.548-10.118Zm-15.079-8.8L610,291.076l15.782-7.248V264.913ZM626.311,264.1l15.144,10.534,5.865-15.7L626.311,248.77Zm-21.54-5.162,5.865,15.7L625.78,264.1V248.77ZM626.311,248l15.813,7.652L640.859,239.2l-14.548-10.118Zm-15.079-8.8-1.265,16.454L625.78,248V229.079Zm15.079-10.931,15.058,10.475,4.813-15.634-19.871-10.16Zm-20.4-5.159,4.813,15.634,15.058-10.475V212.946Zm20.4-10.936,15.849,8.1-1.3-16.913-14.548-10.116Zm-15.079-8.808-1.3,16.913,15.849-8.1V193.246Zm-4.179-14.409,3.724,13.913,15-10.435V177.155Zm19.257,3.478,15,10.435,3.725-13.913-18.728-11.8Zm-12.323-8.646,11.792-7.427V126.645c.088.009.176.013.266.013s.178,0,.266-.013v49.713l11.793,7.427-10.273-57.8a5.294,5.294,0,0,0,1.7-4.09c0-2.625-1.564-4.762-3.487-4.762s-3.486,2.136-3.486,4.762a5.3,5.3,0,0,0,1.7,4.091Z" transform="translate(-240.171 -33.257)" fill="#40403f" stroke="#000" stroke-width="1"/><path d="M466.842,324.7v-166.4h10.314V102.066h8.386V86.14h7.581V37.349h.531V62.581h9.032V86.14H519.3v15.927h8.387v56.242H538V324.7Zm60.843-.725h9.783V159.034h-9.783Zm-50,0h49.468V102.791H477.686Zm-10.314,0h9.783V159.034h-9.783Zm18.7-221.912h32.694v-15.2H486.073Zm7.581-15.927h8.5V63.306h-8.5Zm-6.8,219.986V122.132h31.125V306.126Zm20.925-.725h9.669V287.278h-9.669Zm-10.194,0h9.663V287.278h-9.663Zm-10.2,0h9.669V287.278h-9.669Zm20.394-18.848h9.669V260.309h-9.669Zm-10.194,0h9.663V260.309h-9.663Zm-10.2,0h9.669V260.309h-9.669Zm20.394-26.97h9.669V241.461h-9.669Zm-10.194,0h9.663V241.461h-9.663Zm-10.2,0h9.669V241.461h-9.669Zm20.394-18.848h9.669V214.491h-9.669Zm-10.194,0h9.663V214.491h-9.663Zm-10.2,0h9.669V214.491h-9.669Zm20.394-26.97h9.669V195.644h-9.669Zm-10.194,0h9.663V195.644h-9.663Zm-10.2,0h9.669V195.644h-9.669Zm20.394-18.848h9.669V168.674h-9.669Zm-10.194,0h9.663V168.674h-9.663Zm-10.2,0h9.669V168.674h-9.669Zm20.394-26.97h9.669V149.827h-9.669Zm-10.194,0h9.663V149.827h-9.663Zm-10.2,0h9.669V149.827h-9.669ZM507.782,149.1h9.669V122.857h-9.669Zm-10.194,0h9.663V122.857h-9.663Zm-10.2,0h9.669V122.857h-9.669Z" transform="translate(-185.991 -14.88)" fill="#40403f" stroke="#000" stroke-width="1"/><path d="M367.311,332.8V208.206l5.894-4.647V159.891l4.664-3.678V119.474l4.971-3.917,7.949-42.325V57.668h.531V73.232l7.951,42.325,4.969,3.917v36.738l4.666,3.68v43.668l5.893,4.647V332.8Zm.531-23.574v22.849h46.425V269.436Zm0-20.122V308.37l46.425-39.791V249.314Zm0-20.119v19.264l46.425-39.787V229.193Zm0-40.236v39.38l46.175-39.576-22.963-18.108Zm46.425-.837V208.625L391.054,190.32l-23.212,18.305v19.284l23.212-18.3Zm-5.893-24.768V160.31l-17.32-13.658L373.736,160.31V203.14l17.318-13.657ZM378.4,119.893v35.9l12.654-9.979,12.654,9.979v-35.9l-12.654-9.979Zm20.227-4.844-7.573-40.313-7.571,40.312,7.571-5.97Z" transform="translate(-146.337 -22.975)" fill="#40403f" stroke="#000" stroke-width="1"/><path d="M259.093,309.824V0h.531V27.5L277.4,47.249V24.214h.531V47.839l18.311,20.344V96.107l14.772,15.635V309.824Zm27.933-.725h23.46v-197L273.355,72.794l.326-.573,22.034,23.323V68.529l-36.091-40.1V309.1H286.5V114.605h.531Zm6.749-29.487v-.725h7.556v.725Zm-23.547,0v-.725h7.557v.725Zm23.547-16.079v-.725h7.556v.725Zm-23.547,0v-.725h7.557v.725Zm23.547-16.08v-.725h7.556v.725Zm-23.547,0v-.725h7.557v.725Zm23.547-16.079v-.725h7.556v.725Zm-23.547,0v-.725h7.557v.725Zm23.547-16.08v-.725h7.556v.725Zm-23.547,0v-.725h7.557v.725Zm23.547-16.079v-.725h7.556v.725Zm-23.547,0v-.725h7.557v.725Zm23.547-16.079v-.725h7.556v.725Zm-23.547,0v-.725h7.557v.725Zm23.547-16.079v-.725h7.556v.725Zm-23.547,0v-.725h7.557v.725Zm23.547-16.08v-.725h7.556v.725Zm-23.547,0v-.725h7.557v.725ZM293.775,134.9v-.725h7.556v.725Zm-23.547,0v-.725h7.557v.725Zm0-16.08v-.725h7.557v.725Zm0-16.079v-.725h7.557v.725Z" transform="translate(-103.223)" fill="#40403f" stroke="#000" stroke-width="1"/><path d="M112.835,335.031V171.209c0-21.721,4.408-34.082,11.521-46.986l.123-.223.053-.268c2.812-14.116,7.827-23.872,14.766-37.372,3.282-6.387,7-13.625,11.167-22.605l.224-.483.224.483c4.169,8.988,7.888,16.222,11.168,22.607,6.939,13.5,11.952,23.255,14.765,37.372l.053.268.123.223c7.113,12.9,11.521,25.264,11.521,46.985V335.031Zm65.423-202.346a208.363,208.363,0,0,1,1.261,24.706V334.306h8.5v-163.1c0-20.22-4.176-31.752-7.813-39.537l-2.78-5.949Zm-27.3,201.62h28.032V180.6c0-36.877-5.8-48.152-17.338-70.613-2.971-5.78-6.338-12.328-10.065-20.246l-.894-1.9-.892,1.9c-3.727,7.915-7.095,14.465-10.065,20.243-11.545,22.462-17.34,33.736-17.34,70.616V334.306h28.032V136.848h.531ZM121.179,131.67c-3.637,7.786-7.813,19.316-7.813,39.539v163.1h8.5V157.391a208.353,208.353,0,0,1,1.261-24.706l.836-6.963ZM150.915,86.96c4.169,8.988,7.888,16.222,11.168,22.607,6.817,13.264,11.742,22.848,14.586,36.491l2.647,12.708-.566-13.191c-1.2-27.851-6.846-38.844-17.1-58.8-2.97-5.778-6.337-12.327-10.064-20.244l-.894-1.9-.892,1.9C146.071,74.447,142.7,81,139.733,86.775c-10.256,19.954-15.907,30.947-17.1,58.8l-.567,13.188,2.648-12.705c2.845-13.649,7.769-23.231,14.587-36.493,3.282-6.387,7-13.625,11.167-22.605l.224-.483Zm13.793,227.282v-9.9h.531v9.9Zm-28.564,0v-9.9h.531v9.9Zm28.564-20.533v-9.9h.531v9.9Zm-28.564,0v-9.9h.531v9.9Zm28.564-20.531v-9.9h.531v9.9Zm-28.564,0v-9.9h.531v9.9Zm28.564-20.531v-9.9h.531v9.9Zm-28.564,0v-9.9h.531v9.9Zm28.564-20.531v-9.9h.531v9.9Zm-28.564,0v-9.9h.531v9.9Zm28.564-20.533v-9.9h.531v9.9Zm-28.564,0v-9.9h.531v9.9Zm28.564-20.531v-9.9h.531v9.9Zm-28.564,0v-9.9h.531v9.9Zm28.564-20.533v-9.9h.531v9.9Zm-28.564,0v-9.9h.531v9.9Z" transform="translate(-44.954 -25.207)" fill="#40403f" stroke="#000" stroke-width="1"/><path d="M0,343.7V231.26a320.3,320.3,0,0,1,2.173-37.027s.058-.564.062-.6l.084-.641a300.055,300.055,0,0,1,13.528-60.1l.073-.215a272.52,272.52,0,0,1,10.536-26.492l.162-.354v-20.8h.531v20.8l.164.354a272.123,272.123,0,0,1,10.534,26.492l.385,1.139a300.571,300.571,0,0,1,13.216,59.181l.127,1.054.024.241a320.532,320.532,0,0,1,2.166,36.971V343.7Zm39.857-59.876c-1.252,5.105-2.509,10.1-3.725,14.926-4.519,17.938-8.421,33.43-8.925,42.666l-.085,1.559H53.228l-.044-1.508c-.062-2.122-.231-4.414-.525-7.151-1.5-14.025-6.215-33.16-10.8-50.522l-1.035-3.925Zm-27.954-.03C6.545,304.1,1.009,326.831.582,341.464l-.044,1.508H26.645l-.085-1.559c-.5-9.239-4.406-24.729-8.925-42.666-1.216-4.825-2.473-9.82-3.726-14.926l-.971-3.954Zm13.979-52.02c-2.606,10.026-5.393,20.259-7.851,29.284-1.588,5.826-3.155,11.588-4.667,17.236l-.126.474.116.477c1.609,6.67,3.222,13.075,4.783,19.268,3.291,13.062,6.133,24.343,7.715,33.218l1.031,5.788,1.032-5.788c1.582-8.875,4.424-20.156,7.715-33.218,1.481-5.88,3.161-12.547,4.783-19.267l.116-.479-.127-.474c-1.511-5.646-3.079-11.409-4.666-17.235-2.456-9.016-5.24-19.235-7.852-29.286l-1-3.851Zm25.174-5.925c-2.012,18.466-6.323,37.717-9.853,52.425l-.115.477.126.473c3.3,12.379,7.419,28.3,9.928,41.652L53.235,332V231.26c0-1.416-.024-2.828-.05-4.241l-.3-17.985ZM.58,227.014c-.024,1.414-.049,2.828-.049,4.247V332l2.091-11.123C5.13,307.526,9.245,291.6,12.55,279.22l.126-.473-.115-.477C9.031,263.557,4.72,244.3,2.709,225.837L.876,209.016Zm11.084-78.645A304.454,304.454,0,0,0,2.723,194.1c-2.647,24.1,3.58,55.169,9.3,79.547l.941,4.012,1.066-3.954q1.72-6.383,3.5-12.9c2.83-10.388,6.036-22.16,8.948-33.527l.122-.477-.121-.479c-6.187-24.285-13.229-55.029-12.765-77.4l.179-8.6Zm28.386.554c.464,22.368-6.578,53.113-12.765,77.4l-.121.479.122.477c2.922,11.411,6.123,23.161,8.948,33.528q1.773,6.514,3.5,12.9l1.067,3.951.941-4.009c5.713-24.347,11.934-55.379,9.31-79.456A304.3,304.3,0,0,0,42.1,148.367l-2.232-8.041Zm-14.07-40.346c-3.486,7.729-6.725,15.99-9.627,24.555-6.041,20.665,1.918,58.195,9.526,88.589l1,4.016,1-4.016c7.608-30.4,15.567-67.927,9.548-88.52-2.925-8.638-6.164-16.9-9.648-24.623l-.9-2Z" transform="translate(0 -33.874)" fill="#40403f" stroke="#000" stroke-width="1"/></g></g><g transform="translate(962.558 6185.873)" clip-path="url(#b)"><g transform="translate(-3.64 102.873)" opacity="0.078"><path d="M1581.511,352.234V268.789c0-2.1-1.264-3.817-2.82-3.817h-4.709v-55.4c0-2.875-1.725-5.213-3.848-5.213h-2.395v-29.1c0-2.512-1.329-4.663-3.159-5.114l-.88-.218V149.892a5.341,5.341,0,0,0-2.59-4.9l-.716-.339V130.494c0-2.348-1.181-4.411-2.873-5.015l-.8-.284V106.452h-.535v18.743l-.8.284c-1.693.6-2.874,2.667-2.874,5.015v14.163l-.717.339a5.343,5.343,0,0,0-2.589,4.9v20.033l-.879.218c-1.83.451-3.159,2.6-3.159,5.114v29.1h-2.4c-2.121,0-3.848,2.338-3.848,5.213v55.4h-4.709c-1.555,0-2.82,1.713-2.82,3.817v83.446Zm-37.565-.725h-12.01V327.845h12.01Zm12.243,0h-11.707V327.845h11.707Zm12.242,0h-11.706V327.845h11.706Zm12.545,0h-12.01V327.845h12.01Zm-37.029-24.389h-12.01V268.789c0-1.7,1.025-3.092,2.284-3.092h9.726v14h-3.492v.725h3.492V291.3h-3.492v.725h3.492V302.9h-3.492v.725h3.492V314.5h-3.492v.725h3.492Zm12.243,0h-11.707V265.7h11.707v15.156h-2.118v.725h2.118v10.878h-2.118v.725h2.118v10.878h-2.118v.725h2.118v10.878h-2.118v.725h2.118Zm12.242,0h-11.706V316.387h2.118v-.725h-2.118V304.784h2.118v-.725h-2.118V293.181h2.118v-.725h-2.118V281.578h2.118v-.725h-2.118V265.7h11.706Zm10.261-61.423c1.259,0,2.284,1.388,2.284,3.092V327.12h-12.01V315.227h3.492V314.5h-3.492V303.624h3.492V302.9h-3.492V292.021h3.492V291.3h-3.492V280.418h3.492v-.725h-3.492v-14Zm-30.7-.725h-8.522V248.095h8.522Zm8.2,0h-7.667V248.095h7.667Zm8.2,0h-7.667V248.095h7.667Zm9.057,0h-8.521V248.095h8.521Zm-25.46-17.6h-8.522v-37.8c0-2.474,1.486-4.487,3.312-4.487h5.21v9.63H1545.5v.725h2.483v10.878H1545.5v.725h2.483v10.878H1545.5v.725h2.483Zm8.2,0h-7.667V205.085h7.667v9.63h-2.118v.725h2.118v10.878h-2.118v.725h2.118v10.878h-2.118v.725h2.118Zm8.2,0h-7.667v-8.723h2.118v-.725h-2.118V227.044h2.118v-.725h-2.118V215.441h2.118v-.725h-2.118v-9.63h7.667Zm5.744-42.284c1.826,0,3.312,2.013,3.312,4.487v37.8h-8.521v-8.723h2.483v-.725h-2.483V227.044h2.483v-.725h-2.483V215.441h2.483v-.725h-2.483v-9.63Zm-13.946-.725h-10.481v-9.884h10.481Zm11.016,0h-10.481v-9.884h10.481Zm-11.016-10.609h-10.481v-18.5c0-2.473,1.485-4.486,3.312-4.486h7.169Zm7.7-22.981c1.827,0,3.313,2.013,3.313,4.486v18.5h-10.481V170.77Zm-.726-.725h-13.419V158.211h13.419Zm-3.312-24.639c1.827,0,3.312,2.012,3.312,4.486v7.594h-13.419v-7.594c0-2.474,1.486-4.486,3.313-4.486Zm-3.305-19.4c1.826,0,3.311,2.013,3.311,4.486V144.68h-6.808V130.494c0-2.473,1.486-4.486,3.312-4.486Z" transform="translate(-1531.401 -42.41)" fill="#40403f" stroke="#000" stroke-width="1"/><path d="M1473.686,389.948v-138.4h-10.073V237.18h-9.6V201.114h-.535V226.8h-10.847V237.18h-5.55V218.24h-.536v18.94h-10.932v14.369h-10.073v138.4Zm-34.135-.725h-23.471V252.274h57.071V389.223h-23.47v-15.88h-10.13Zm9.595,0h-9.06V374.068h9.06Zm13.932-137.673h-36.925V237.906h36.925Zm-9.6-14.369H1443.17v-9.652h10.312Zm-27.329,129.783v-3.891h36.925v3.891h.536v-4.617h-38v4.617Zm0-13.607v-3.89h36.925v3.89h.536v-4.615h-38v4.615Zm0-13.607v-3.89h36.925v3.89h.536v-4.615h-38v4.615Zm0-13.607v-3.89h36.925v3.89h.536v-4.615h-38v4.615Zm0-13.607v-3.89h36.925v3.89h.536v-4.615h-38v4.615Zm0-13.607v-3.891h36.925v3.891h.536V294.31h-38v4.617Zm0-13.607v-3.891h36.925v3.891h.536V280.7h-38v4.617Zm0-13.607v-3.891h36.925v3.891h.536V267.1h-38v4.617Z" transform="translate(-1353.289 -80.124)" fill="#40403f" stroke="#000" stroke-width="1"/><path d="M1359.086,387.041V196.718c0-1.626-.734-2.9-1.668-2.9h-50.6c-.935,0-1.667,1.273-1.667,2.9V387.041Zm-44.514-.725h-8.887V371.958h8.887Zm12.708,0h-12.173V371.958h12.173Zm9.139,0h-8.6V371.958h8.6Zm12.708,0h-12.173V371.958h12.173Zm9.423,0h-8.887V371.958h8.887Zm-43.978-15.084h-8.887V356.427h8.887Zm12.708,0h-12.173V356.427h12.173Zm9.139,0h-8.6V356.427h8.6Zm12.708,0h-12.173V356.427h12.173Zm9.423,0h-8.887V356.427h8.887ZM1314.572,355.7h-8.887V340.9h8.887Zm12.708,0h-12.173V340.9h12.173Zm9.139,0h-8.6V340.9h8.6Zm12.708,0h-12.173V340.9h12.173Zm9.423,0h-8.887V340.9h8.887Zm-43.978-15.531h-8.887v-14.8h8.887Zm12.708,0h-12.173v-14.8h12.173Zm9.139,0h-8.6v-14.8h8.6Zm12.708,0h-12.173v-14.8h12.173Zm9.423,0h-8.887v-14.8h8.887Zm-43.978-15.529h-8.887V309.837h8.887Zm12.708,0h-12.173V309.837h12.173Zm9.139,0h-8.6V309.837h8.6Zm12.708,0h-12.173V309.837h12.173Zm9.423,0h-8.887V309.837h8.887Zm-43.978-15.531h-8.887V294.306h8.887Zm12.708,0h-12.173V294.306h12.173Zm9.139,0h-8.6V294.306h8.6Zm12.708,0h-12.173V294.306h12.173Zm9.423,0h-8.887V294.306h8.887Zm-43.978-15.531h-8.887V278.776h8.887Zm12.708,0h-12.173V278.776h12.173Zm9.139,0h-8.6V278.776h8.6Zm12.708,0h-12.173V278.776h12.173Zm9.423,0h-8.887V278.776h8.887Zm-43.978-15.531h-8.887V263.245h8.887Zm12.708,0h-12.173V263.245h12.173Zm9.139,0h-8.6V263.245h8.6Zm12.708,0h-12.173V263.245h12.173Zm9.423,0h-8.887V263.245h8.887Zm-43.978-15.531h-8.887v-14.8h8.887Zm12.708,0h-12.173v-14.8h12.173Zm9.139,0h-8.6v-14.8h8.6Zm12.708,0h-12.173v-14.8h12.173Zm9.423,0h-8.887v-14.8h8.887Zm-43.978-15.529h-8.887V232.185h8.887Zm12.708,0h-12.173V232.185h12.173Zm9.139,0h-8.6V232.185h8.6Zm12.708,0h-12.173V232.185h12.173Zm9.423,0h-8.887V232.185h8.887Zm-43.978-15.531h-8.887V216.655h8.887Zm12.708,0h-12.173V216.655h12.173Zm9.139,0h-8.6V216.655h8.6Zm12.708,0h-12.173V216.655h12.173Zm9.423,0h-8.887V216.655h8.887Zm-43.978-15.531h-8.887V196.718a3.293,3.293,0,0,1,.393-1.64l.321-.534h8.173Zm12.708,0h-12.173V194.544h12.173Zm9.139,0h-8.6V194.544h8.6Zm12.708,0h-12.173V194.544h12.173Zm9.037-20.842a3.327,3.327,0,0,1,.385,1.63V215.93h-8.887V194.544h8.179Z" transform="translate(-1171.717 -77.218)" fill="#40403f" stroke="#000" stroke-width="1"/><path d="M1238.177,349.084l-9.1-45.768c-1.811-4.8-5.4-7.775-9.382-7.775h-6.027V193.724c0-6.3-3.784-11.425-8.437-11.425h-4.154V98.544h-.536v19.467l-.968.126c-6.627.86-11.623,8.309-11.623,17.329v102.1h-8.322c-4.653,0-8.438,5.126-8.438,11.426V349.084Zm-19.521-.725h-46.934v-16.7h24.865v-.725h-24.865V315.467h43.3v-.725h-43.3V296.266h47.969c3.758,0,7.161,2.805,8.884,7.324l.052.138,8.851,44.631h-18.288V337.975h-.535Zm-37.132-52.818h-9.8V248.992c0-5.9,3.546-10.7,7.9-10.7h33.5v21.055H1186.1v.725h27.033v15.3h-18.281v.725h18.281V295.54h-31.07V283.952h-.535Zm22.849-57.974h-15.892v-19.61h8.106v-.725h-8.106v-14.4h14.948v-.725h-14.948V183.025h16.746c4.356,0,7.9,4.8,7.9,10.7v43.842h-8.22v-6.959h-.535Zm-3.836-55.266h-12.056V135.466c0-8.45,4.669-15.574,10.859-16.573l1.2-.193v25.17h-4.957v.725h4.957v15.152h-3.11v.725h3.11Z" transform="translate(-969.537 -39.26)" fill="#40403f" stroke="#000" stroke-width="1"/><path d="M1120.135,384.951V242.667c0-1.246-.749-2.258-1.667-2.258H1105.76l7.464-12.145a1.38,1.38,0,0,0,.109-1.165.814.814,0,0,0-.731-.631h-14.564l-.15-1.211a11.138,11.138,0,0,0-3.972-7.565l-.556-.412V188.573h-.536v28.311l-1.261-.309a5.489,5.489,0,0,0-2.787,0l-1.262.309V203.89h-.535v13.39l-.557.412a11.136,11.136,0,0,0-3.972,7.565l-.149,1.211h-14.564a.814.814,0,0,0-.733.629,1.383,1.383,0,0,0,.11,1.166l7.464,12.145h-12.709c-.919,0-1.667,1.012-1.667,2.258V384.951Zm-50.511-.725h-8.886V373.682h8.886Zm12.708,0H1070.16V373.682h12.173Zm15.137,0h-14.6V373.682h14.6Zm12.708,0h-12.173V373.682h12.173Zm9.422,0h-8.886V373.682h8.886Zm-49.975-11.269h-8.886V362.079h8.886Zm12.708,0H1070.16V362.079h12.173Zm15.137,0h-14.6V362.079h14.6Zm12.708,0h-12.173V362.079h12.173Zm9.422,0h-8.886V362.079h8.886Zm-49.975-11.6h-8.886V350.476h8.886Zm12.708,0H1070.16V350.476h12.173Zm15.137,0h-14.6V350.476h14.6Zm12.708,0h-12.173V350.476h12.173Zm9.422,0h-8.886V350.476h8.886Zm-49.975-11.6h-8.886V338.873h8.886Zm12.708,0H1070.16V338.873h12.173Zm15.137,0h-14.6V338.873h14.6Zm12.708,0h-12.173V338.873h12.173Zm9.422,0h-8.886V338.873h8.886Zm-49.975-11.6h-8.886V327.27h8.886Zm12.708,0H1070.16V327.27h12.173Zm15.137,0h-14.6V327.27h14.6Zm12.708,0h-12.173V327.27h12.173Zm9.422,0h-8.886V327.27h8.886Zm-49.975-11.6h-8.886V315.667h8.886Zm12.708,0H1070.16V315.667h12.173Zm15.137,0h-14.6V315.667h14.6Zm12.708,0h-12.173V315.667h12.173Zm9.422,0h-8.886V315.667h8.886Zm-49.975-11.6h-8.886V304.064h8.886Zm12.708,0H1070.16V304.064h12.173Zm15.137,0h-14.6V304.064h14.6Zm12.708,0h-12.173V304.064h12.173Zm9.422,0h-8.886V304.064h8.886Zm-49.975-11.6h-8.886V292.461h8.886Zm12.708,0H1070.16V292.461h12.173Zm15.137,0h-14.6V292.461h14.6Zm12.708,0h-12.173V292.461h12.173Zm9.422,0h-8.886V292.461h8.886Zm-49.975-11.6h-8.886V280.858h8.886Zm12.708,0H1070.16V280.858h12.173Zm15.137,0h-14.6V280.858h14.6Zm12.708,0h-12.173V280.858h12.173Zm9.422,0h-8.886V280.858h8.886Zm-49.975-11.6h-8.886V269.255h8.886Zm12.708,0H1070.16V269.255h12.173Zm15.137,0h-14.6V269.255h14.6Zm12.708,0h-12.173V269.255h12.173Zm9.422,0h-8.886V269.255h8.886Zm-49.975-11.6h-8.886V257.652h8.886Zm12.708,0H1070.16V257.652h12.173Zm15.137,0h-14.6V257.652h14.6Zm12.708,0h-12.173V257.652h12.173Zm9.422,0h-8.886V257.652h8.886Zm-49.975-11.6h-8.886V241.218l8.886-.013Zm12.708,0H1070.16V241.2l12.173-.017Zm15.137,0h-14.6V241.185l14.6-.02Zm12.708,0h-12.173V241.163l12.173-.017Zm9.422-14.26v14.26h-8.886V241.144l8.825-.01Zm-14.537-2.258h-29.788l-3.492-5.681h6.654V234h-7.1l-4.185-6.809h46.031L1109,234h-6.859v.725h6.415Zm-14.894-23.289c3.375,0,6.288,3.107,7.087,7.554l.322,1.794h-14.819l.323-1.794C1083.88,220.227,1086.794,217.12,1090.169,217.12Z" transform="translate(-784.165 -75.128)" fill="#40403f" stroke="#000" stroke-width="1"/><path d="M992.469,331.619V165.531l-11.33-47.268h-6.585l-1.8-8.965V93.055h-11.93V54.707h-.536V79.939h-6.537V93.055h-12.47v16.238l-1.966,8.971h-7.274l-11.33,47.266V331.619Zm-61.355-.725h-9.865V165.949h9.865Zm50.419,0H931.649V156.119H940.9V313.041h31.386l-.043-156.923h9.292Zm10.4,0h-9.866l-.043-164.945h9.909Zm-40.75-18.578h-9.749V294.194h9.749Zm10.281,0h-9.745V294.194h9.745Zm10.285,0H962V294.194h9.75Zm-20.565-18.848h-9.749V267.224h9.749Zm10.281,0h-9.745V267.224h9.745Zm10.285,0H962V267.224h9.751ZM951.183,266.5h-9.749V248.377h9.749Zm10.281,0h-9.745V248.377h9.745Zm10.285,0H962V248.377h9.752Zm-20.565-18.848h-9.749V221.407h9.749Zm10.281,0h-9.745V221.407h9.745Zm10.285,0H962V221.407h9.753Zm-20.565-26.97h-9.749V202.559h9.749Zm10.281,0h-9.745V202.559h9.745Zm10.285,0H962V202.559h9.754Zm-20.565-18.848h-9.749V175.59h9.749Zm10.281,0h-9.745V175.59h9.745Zm10.285,0h-9.754V175.59h9.754Zm-20.565-26.97h-9.749V156.742h9.749Zm10.281,0h-9.745V156.742h9.745Zm10.285,0h-9.754V156.742h9.755Zm-40.635-9.641h-9.764l11.084-46.235h6.726L931.114,155.7Zm60.719,0h-9.809l0-9.749L974.7,118.989h6.051Zm-40.622-9.207h-9.685l5.835-26.244h5.513Zm10.229,0h-9.7l1.666-26.244h6.365Zm10.23,0h-9.693l-1.666-26.244h6.357Zm-30.565-.624H931.74l10.012-45.687h30.53l9.17,45.687H972.1l-5.021-26.346h-20.12Zm29.925-46.412H941.819V93.944Zm1.19-.162-14.649-7.542,14.649-7.339Zm-15.411-7.934-13.8-7.105h27.981Zm3.481-7.831h-6V80.665h6Zm3.846,26.275V118.6H949.9v.725Z" transform="translate(-571.875 -21.795)" fill="#40403f" stroke="#000" stroke-width="1"/><path d="M858.848,347.113l-6.129-41.444,3.039-22.581-3.188,1.536V264.668l3.188-23.689-3.188,1.536V222.559l3.188-23.689-3.188,1.536V180.451l3.188-23.689-11.11,5.349L838.6,121.962h-4.839V93.6h-.535v28.365h-4.84l-6.051,40.149-11.111-5.349,3.187,23.689v19.956l-3.187-1.536,3.187,23.689v19.956l-3.187-1.536,3.187,23.689v19.956l-3.187-1.536,3.039,22.581-6.13,41.444ZM833.222,315.49v30.9H808.784l6.09-41.191Zm24.972,30.9H833.757v-30.9L852.1,305.2Zm-24.972-41.35v9.67l-18.608-10.441-2.7-20.076,21.31,10.258v9.822l-8.888-4.281-.18.683Zm19.143-.772-18.608,10.441v-9.67l9.069-4.366-.18-.683-8.889,4.281v-9.822l21.309-10.258Zm-19.143-30.884v20.3l-18.279-8.8V263.128Zm18.813,11.5-18.278,8.8v-20.3l18.278-10.254Zm-18.813-22.774V272.6l-18.608-10.44-2.7-20.075,21.31,10.257v9l-8.888-4.28-.18.685Zm19.143.051L833.757,272.6V262.107l9.069-4.364-.18-.685-8.889,4.28v-9l21.309-10.257Zm-19.143-30.884v20.3l-18.279-8.8V221.019Zm18.813,11.5-18.278,8.8v-20.3l18.278-10.254Zm-18.813-22.434v10.151L814.614,220.05l-2.7-20.076,21.31,10.257v9.336l-8.888-4.279-.18.682Zm19.143-.287-18.608,10.438V220.337l9.069-4.367-.18-.683-8.889,4.28v-9.336l21.309-10.257Zm-19.143-30.886v20.3l-18.279-8.8V178.91Zm18.813,11.5-18.278,8.8v-20.3l18.278-10.254Zm-18.813-22.1v9.813l-18.608-10.437-2.7-20.076,21.31,10.258V177.8l-8.888-4.279-.18.683Zm19.143-.624-18.608,10.437v-9.813l9.069-4.366-.18-.683-8.889,4.279v-9.671l21.309-10.258Zm-8.225-15.586-10.65,5.127-10.65-5.127,5.979-39.669h9.341Z" transform="translate(-369.954 -37.289)" fill="#40403f" stroke="#000" stroke-width="1"/><path d="M751.624,359.674V185.94c0-7.123-3.545-12.917-7.9-12.917h-2.975v-5.1c0-5.572-3.346-10.106-7.461-10.106h-1.528l-.1-1.305c-.339-4.566-2.445-7.514-5.78-8.092l-.936-.161V125.126h-.535v23.138l-.935.161c-3.336.577-5.442,3.526-5.78,8.092l-.1,1.305h-1.528c-4.114,0-7.462,4.534-7.462,10.106v5.1h-2.974c-4.357,0-7.9,5.794-7.9,12.917V359.674Zm-45.427-.725h-7.929V341.661H706.2Zm9.107,0h-8.571V341.661H715.3Zm18.215,0H715.839V341.661h17.679Zm9.107,0h-8.571V341.661h8.571Zm8.463,0h-7.928V341.661h7.928ZM706.2,340.935h-7.929V318.547H706.2Zm9.107,0h-8.571V318.547H715.3Zm18.215,0H715.839V318.547h17.679Zm9.107,0h-8.571V318.547h8.571Zm8.463,0h-7.928V318.547h7.928ZM706.2,317.822h-7.929V300.534H706.2Zm9.107,0h-8.571V300.534H715.3Zm18.215,0H715.839V300.534h17.679Zm9.107,0h-8.571V300.534h8.571Zm8.463,0h-7.928V300.534h7.928ZM706.2,299.809h-7.929V277.422H706.2Zm9.107,0h-8.571V277.422H715.3Zm18.215,0H715.839V277.422h17.679Zm9.107,0h-8.571V277.422h8.571Zm8.463,0h-7.928V277.422h7.928ZM709.649,276.7H698.268V256h11.382Zm29.523,0H710.185V256h28.988Zm11.916,0h-11.38V256h11.38ZM706.2,255.275h-7.929V232.889H706.2Zm9.107,0h-8.571V232.889H715.3Zm18.215,0H715.839V232.889h17.679Zm9.107,0h-8.571V232.889h8.571Zm8.463,0h-7.928V232.889h7.928ZM706.2,232.163h-7.929V214.875H706.2Zm9.107,0h-8.571V214.875H715.3Zm18.215,0H715.839V214.875h17.679Zm9.107,0h-8.571V214.875h8.571Zm8.463,0h-7.928V214.875h7.928ZM706.2,214.15h-7.929V191.762H706.2Zm9.107,0h-8.571V191.762H715.3Zm18.215,0H715.839V191.762h17.679Zm9.107,0h-8.571V191.762h8.571Zm8.463,0h-7.928V191.762h7.928ZM706.2,191.037h-7.929v-5.1c0-6.39,2.9-11.609,6.749-12.14l1.18-.162Zm9.107,0h-8.571V173.748H715.3Zm18.215,0H715.839V173.748h17.679Zm9.107,0h-8.571V173.748h8.571Zm1.716-17.236c3.847.531,6.748,5.749,6.748,12.14v5.1h-7.928v-17.4Zm-11.055-15.254c3.819,0,6.925,4.209,6.925,9.381v5.1H709.145v-5.1c0-5.172,3.108-9.381,6.926-9.381Zm-8.608-9.51c3.54,0,5.935,2.666,6.406,7.13l.175,1.655H718.1l.174-1.655C718.743,151.7,721.139,149.037,724.678,149.037Z" transform="translate(-195.755 -49.85)" fill="#40403f" stroke="#000" stroke-width="1"/><path d="M648.286,343.081l-6.349-31.322,7.709-17.393-6.664-3.036-1.177-15.165,6.646-17.636-5.437-2.609L641.8,240.271l5.457-17.58-4.205-2.132L641.8,204.392l4.27-15.819-7.045-4.4L628.66,126.366l.429-.577a6.529,6.529,0,0,0,1.2-3.894c0-2.45-1.231-4.615-2.994-5.268l-.789-.292V83.476h-.535v32.86l-.789.292c-1.764.653-3,2.818-3,5.268a6.535,6.535,0,0,0,1.2,3.894l.429.577-10.361,57.806-7.045,4.4,4.27,15.818-1.255,16.169-4.2,2.132,5.456,17.579-1.214,15.649-5.436,2.609,6.646,17.635L609.5,291.33l-6.664,3.036,7.71,17.391-6.35,31.324Zm-7.084-32.2,6.38,31.475H604.9l6.383-31.475,14.693-10.137v38.67h.535v-38.67Zm7.642-16.116-6.983,15.755L626.51,299.934V284.593Zm-22.87,5.169L610.622,310.52l-6.983-15.755,22.335-10.171Zm0-16.1-15.916,7.248,1.245-16.045,14.67-10.118Zm15.206-8.8,1.244,16.045-15.914-7.248V264.913ZM625.974,264.1,610.7,274.632l-5.914-15.7,21.186-10.166Zm21.722-5.162-5.915,15.7L626.51,264.1V248.77ZM625.974,248l-15.947,7.652L611.3,239.2l14.67-10.118Zm15.206-8.8,1.275,16.454L626.51,248V229.079Zm-15.206-10.931L610.789,238.74l-4.853-15.634,20.038-10.16Zm20.574-5.159-4.853,15.634L626.51,228.265V212.946ZM625.974,212.17l-15.983,8.1,1.313-16.913,14.67-10.116Zm15.206-8.808,1.312,16.913-15.982-8.1V193.246Zm4.214-14.409-3.756,13.913L626.51,192.431V177.155Zm-19.419,3.478-15.129,10.435-3.757-13.913,18.886-11.8Zm12.427-8.646-11.891-7.427V126.645c-.089.009-.178.013-.268.013s-.18,0-.268-.013v49.713l-11.892,7.427,10.36-57.8a5.273,5.273,0,0,1-1.717-4.09c0-2.625,1.577-4.762,3.517-4.762s3.516,2.136,3.516,4.762a5.282,5.282,0,0,1-1.717,4.091Z" transform="translate(-36.208 -33.257)" fill="#40403f" stroke="#000" stroke-width="1"/><path d="M538.6,324.7v-166.4H528.2V102.066h-8.457V86.14H512.1V37.349h-.535V62.581h-9.108V86.14H485.7v15.927h-8.458v56.242h-10.4V324.7Zm-61.355-.725h-9.865V159.034h9.865Zm50.42,0H477.778V102.791h49.884Zm10.4,0H528.2V159.034h9.865ZM519.205,102.066H486.236v-15.2h32.969ZM511.56,86.14h-8.572V63.306h8.572Zm6.854,219.986V122.132H487.027V306.126Zm-21.1-.725h-9.75V287.278h9.75Zm10.279,0h-9.744V287.278h9.744Zm10.286,0h-9.75V287.278h9.75Zm-20.565-18.848h-9.75V260.309h9.75Zm10.279,0h-9.744V260.309h9.744Zm10.286,0h-9.75V260.309h9.75Zm-20.565-26.97h-9.75V241.461h9.75Zm10.279,0h-9.744V241.461h9.744Zm10.286,0h-9.75V241.461h9.75Zm-20.565-18.848h-9.75V214.491h9.75Zm10.279,0h-9.744V214.491h9.744Zm10.286,0h-9.75V214.491h9.75Zm-20.565-26.97h-9.75V195.644h9.75Zm10.279,0h-9.744V195.644h9.744Zm10.286,0h-9.75V195.644h9.75Zm-20.565-18.848h-9.75V168.674h9.75Zm10.279,0h-9.744V168.674h9.744Zm10.286,0h-9.75V168.674h9.75Zm-20.565-26.97h-9.75V149.827h9.75Zm10.279,0h-9.744V149.827h9.744Zm10.286,0h-9.75V149.827h9.75ZM497.313,149.1h-9.75V122.857h9.75Zm10.279,0h-9.744V122.857h9.744Zm10.286,0h-9.75V122.857h9.75Z" transform="translate(157.344 -14.88)" fill="#40403f" stroke="#000" stroke-width="1"/><path d="M415.2,332.8V208.206l-5.943-4.647V159.891l-4.7-3.678V119.474l-5.013-3.917-8.016-42.325V57.668h-.535V73.232l-8.018,42.325-5.011,3.917v36.738l-4.705,3.68v43.668l-5.942,4.647V332.8Zm-.535-23.574v22.849H367.846V269.436Zm0-20.122V308.37l-46.816-39.791V249.314Zm0-20.119v19.264L367.846,248.46V229.193Zm0-40.236v39.38L368.1,228.55l23.157-18.108Zm-46.816-.837V208.625l23.409-18.305,23.408,18.305v19.284l-23.408-18.3Zm5.942-24.768V160.31l17.466-13.658,17.464,13.658V203.14l-17.464-13.657Zm30.227-83.248v35.9l-12.761-9.979-12.761,9.979v-35.9l12.761-9.979Zm-20.4-4.844,7.636-40.313,7.634,40.312-7.634-5.97Z" transform="translate(341.126 -22.975)" fill="#40403f" stroke="#000" stroke-width="1"/><path d="M311.455,309.824V0h-.535V27.5L292.99,47.249V24.214h-.535V47.839L273.989,68.183V96.107l-14.9,15.635V309.824Zm-28.169-.725H259.629v-197l37.445-39.305-.329-.573-22.22,23.323V68.529l36.4-40.1V309.1h-27.1V114.605h-.535Zm-6.805-29.487v-.725h-7.619v.725Zm23.745,0v-.725h-7.621v.725Zm-23.745-16.079v-.725h-7.619v.725Zm23.745,0v-.725h-7.621v.725Zm-23.745-16.08v-.725h-7.619v.725Zm23.745,0v-.725h-7.621v.725Zm-23.745-16.079v-.725h-7.619v.725Zm23.745,0v-.725h-7.621v.725Zm-23.745-16.08v-.725h-7.619v.725Zm23.745,0v-.725h-7.621v.725Zm-23.745-16.079v-.725h-7.619v.725Zm23.745,0v-.725h-7.621v.725Zm-23.745-16.079v-.725h-7.619v.725Zm23.745,0v-.725h-7.621v.725Zm-23.745-16.079v-.725h-7.619v.725Zm23.745,0v-.725h-7.621v.725Zm-23.745-16.08v-.725h-7.619v.725Zm23.745,0v-.725h-7.621v.725ZM276.481,134.9v-.725h-7.619v.725Zm23.745,0v-.725h-7.621v.725Zm0-16.08v-.725h-7.621v.725Zm0-16.079v-.725h-7.621v.725Z" transform="translate(510.52)" fill="#40403f" stroke="#000" stroke-width="1"/><path d="M189.183,335.031V171.209c0-21.721-4.445-34.082-11.618-46.986l-.124-.223-.054-.268c-2.836-14.116-7.892-23.872-14.891-37.372-3.31-6.387-7.063-13.625-11.261-22.605l-.226-.483-.226.483c-4.2,8.988-7.955,16.222-11.263,22.607-7,13.5-12.053,23.255-14.89,37.372l-.054.268-.124.223c-7.173,12.9-11.618,25.264-11.618,46.985V335.031ZM123.209,132.685a206.641,206.641,0,0,0-1.271,24.706V334.306h-8.567v-163.1c0-20.22,4.211-31.752,7.879-39.537l2.8-5.949Zm27.533,201.62H122.473V180.6c0-36.877,5.844-48.152,17.484-70.613,3-5.78,6.391-12.328,10.15-20.246l.9-1.9.9,1.9c3.759,7.915,7.155,14.465,10.15,20.243,11.643,22.462,17.487,33.736,17.487,70.616V334.306H151.277V136.848h-.535ZM180.769,131.67c3.668,7.786,7.879,19.316,7.879,39.539v163.1h-8.567V157.391a206.628,206.628,0,0,0-1.271-24.706l-.843-6.963ZM150.783,86.96c-4.2,8.988-7.955,16.222-11.263,22.607-6.874,13.264-11.841,22.848-14.709,36.491l-2.67,12.708.571-13.191c1.207-27.851,6.9-38.844,17.246-58.8,3-5.778,6.39-12.327,10.149-20.244l.9-1.9.9,1.9c3.759,7.915,7.155,14.465,10.15,20.243,10.343,19.954,16.041,30.947,17.247,58.8l.572,13.188-2.671-12.705c-2.869-13.649-7.835-23.231-14.71-36.493-3.31-6.387-7.063-13.625-11.261-22.605l-.226-.483ZM136.875,314.241v-9.9h-.535v9.9Zm28.8,0v-9.9h-.535v9.9Zm-28.8-20.533v-9.9h-.535v9.9Zm28.8,0v-9.9h-.535v9.9Zm-28.8-20.531v-9.9h-.535v9.9Zm28.8,0v-9.9h-.535v9.9Zm-28.8-20.531v-9.9h-.535v9.9Zm28.8,0v-9.9h-.535v9.9Zm-28.8-20.531v-9.9h-.535v9.9Zm28.8,0v-9.9h-.535v9.9Zm-28.8-20.533v-9.9h-.535v9.9Zm28.8,0v-9.9h-.535v9.9Zm-28.8-20.531v-9.9h-.535v9.9Zm28.8,0v-9.9h-.535v9.9Zm-28.8-20.533v-9.9h-.535v9.9Zm28.8,0v-9.9h-.535v9.9Z" transform="translate(721.522 -25.207)" fill="#40403f" stroke="#000" stroke-width="1"/><path d="M54.219,343.7V231.26a317.655,317.655,0,0,0-2.191-37.027s-.059-.564-.062-.6l-.085-.641a297.926,297.926,0,0,0-13.642-60.1l-.074-.215a271.185,271.185,0,0,0-10.624-26.492l-.164-.354v-20.8h-.535v20.8l-.165.354a270.789,270.789,0,0,0-10.623,26.492l-.389,1.139A298.432,298.432,0,0,0,2.338,192.994l-.129,1.054-.025.241A317.886,317.886,0,0,0,0,231.26V343.7ZM14.026,283.822c1.263,5.105,2.531,10.1,3.757,14.926,4.557,17.938,8.492,33.43,9,42.666l.086,1.559H.543l.044-1.508C1.017,326.829,6.6,304.1,12,283.791l1.044-3.925Zm28.189-.03c5.4,20.307,10.986,43.04,11.417,57.673l.044,1.508H27.349l.086-1.559c.508-9.239,4.443-24.729,9-42.666,1.226-4.825,2.494-9.82,3.758-14.926l.979-3.954Zm-14.1-52.02c2.628,10.026,5.438,20.259,7.917,29.284,1.6,5.826,3.182,11.588,4.707,17.236l.127.474-.117.477c-1.622,6.67-3.249,13.075-4.823,19.268-3.319,13.062-6.184,24.343-7.78,33.218l-1.04,5.788-1.041-5.788c-1.6-8.875-4.461-20.156-7.78-33.218-1.494-5.88-3.188-12.547-4.823-19.267l-.117-.479.129-.474c1.524-5.646,3.1-11.409,4.705-17.235,2.477-9.016,5.284-19.235,7.918-29.286l1.009-3.851ZM2.732,225.846c2.029,18.466,6.376,37.717,9.936,52.425l.116.477-.127.473c-3.332,12.379-7.481,28.3-10.012,41.652L.535,332V231.26c0-1.416.025-2.828.05-4.241l.3-17.985Zm50.9,1.168c.025,1.414.049,2.828.049,4.247V332l-2.109-11.123C49.046,307.526,44.9,291.6,41.563,279.22l-.127-.473.116-.477c3.561-14.713,7.907-33.969,9.936-52.432l1.848-16.821ZM42.458,148.369A302.2,302.2,0,0,1,51.473,194.1c2.67,24.1-3.61,55.169-9.379,79.547l-.949,4.012-1.075-3.954q-1.735-6.383-3.532-12.9c-2.854-10.388-6.087-22.16-9.023-33.527l-.123-.477.122-.479c6.239-24.285,13.34-55.029,12.872-77.4l-.181-8.6Zm-28.625.554c-.468,22.368,6.633,53.113,12.872,77.4l.122.479-.123.477c-2.947,11.411-6.175,23.161-9.023,33.528q-1.788,6.514-3.532,12.9l-1.076,3.951-.949-4.009C6.362,249.3.089,218.271,2.735,194.195a302.044,302.044,0,0,1,9.027-45.827l2.251-8.041Zm14.188-40.346c3.516,7.729,6.782,15.99,9.708,24.555,6.092,20.665-1.934,58.195-9.606,88.589l-1.013,4.016L26.1,221.72c-7.672-30.4-15.7-67.927-9.628-88.52,2.949-8.638,6.215-16.9,9.729-24.623l.912-2Z" transform="translate(924.939 -33.874)" fill="#40403f" stroke="#000" stroke-width="1"/></g></g></g></svg>